<?xml version="1.0" standalone="no"?>
<!DOCTYPE svg PUBLIC "-//W3C//DTD SVG 1.1//EN" "http://www.w3.org/Graphics/SVG/1.1/DTD/svg11.dtd" >
<svg xmlns="http://www.w3.org/2000/svg">
<metadata>
Created by FontForge 20120731 at Fri Nov  6 22:06:52 2015
 By Ads
</metadata>
<defs>
<font id="iconfont" horiz-adv-x="1024" >
  <font-face 
    font-family="iconfont"
    font-weight="500"
    font-stretch="normal"
    units-per-em="1024"
    panose-1="2 0 6 3 0 0 0 0 0 0"
    ascent="812"
    descent="-212"
    x-height="792"
    bbox="0 -212 1112 812"
    underline-thickness="50"
    underline-position="-100"
    unicode-range="U+0078-E62F"
  />
<missing-glyph horiz-adv-x="374" 
d="M34 0v682h272v-682h-272zM68 34h204v614h-204v-614z" />
    <glyph glyph-name=".notdef" horiz-adv-x="374" 
d="M34 0v682h272v-682h-272zM68 34h204v614h-204v-614z" />
    <glyph glyph-name=".null" horiz-adv-x="0" 
 />
    <glyph glyph-name="nonmarkingreturn" horiz-adv-x="341" 
 />
    <glyph glyph-name="x" unicode="x" horiz-adv-x="1001" 
d="M281 543q-27 -1 -53 -1h-83q-18 0 -36.5 -6t-32.5 -18.5t-23 -32t-9 -45.5v-76h912v41q0 16 -0.5 30t-0.5 18q0 13 -5 29t-17 29.5t-31.5 22.5t-49.5 9h-133v-97h-438v97zM955 310v-52q0 -23 0.5 -52t0.5 -58t-10.5 -47.5t-26 -30t-33 -16t-31.5 -4.5q-14 -1 -29.5 -0.5
t-29.5 0.5h-32l-45 128h-439l-44 -128h-29h-34q-20 0 -45 1q-25 0 -41 9.5t-25.5 23t-13.5 29.5t-4 30v167h911zM163 247q-12 0 -21 -8.5t-9 -21.5t9 -21.5t21 -8.5q13 0 22 8.5t9 21.5t-9 21.5t-22 8.5zM316 123q-8 -26 -14 -48q-5 -19 -10.5 -37t-7.5 -25t-3 -15t1 -14.5
t9.5 -10.5t21.5 -4h37h67h81h80h64h36q23 0 34 12t2 38q-5 13 -9.5 30.5t-9.5 34.5q-5 19 -11 39h-368zM336 498v228q0 11 2.5 23t10 21.5t20.5 15.5t34 6h188q31 0 51.5 -14.5t20.5 -52.5v-227h-327z" />
    <glyph glyph-name="uniE600" unicode="&#xe600;" 
d="M357 174q-9 -63 -48 -98.5t-99 -35.5q-70 0 -111.5 48t-41.5 129.5t43 130t116 48.5q57 0 93.5 -29.5t44.5 -80.5h-44q-7 33 -31.5 51.5t-63.5 18.5q-51 0 -81 -37.5t-30 -100.5q0 -67 28 -102t81 -35q39 0 65 24t35 69h44zM416 49v338h247v-20v-21h-201v-103h184v-20
v-20h-184v-113h203v-20v-21h-249zM810 346h-114v21v20h274v-20v-21h-114v-297h-23h-23v297z" />
    <glyph glyph-name="uniE601" unicode="&#xe601;" 
d="M890.5 252q-9.5 0 -15.5 -6.5t-6 -15.5v-353q0 -19 -13 -32t-32 -13h-620q-18 0 -31 13t-13 32v353q0 9 -6.5 15.5t-15.5 6.5t-15.5 -6.5t-6.5 -15.5v-354q0 -36 25.5 -61.5t61.5 -26.5h621q37 0 63 26t26 62v354q0 9 -6.5 15.5t-16 6.5zM1018 339l-442 442
q-25 25 -61.5 25t-61.5 -25l-442 -442q-6 -6 -6 -15t6.5 -15t15 -6.5t15.5 5.5l441 441q13 13 31 13t31 -13l442 -441q16 -13 30 1q6 6 6.5 14.5t-5.5 15.5z" />
    <glyph glyph-name="uniE602" unicode="&#xe602;" 
d="M235 528h419v-43h-419v43zM235 393h306v-42h-306v42zM235 260h306v-43h-306v43zM235 125h306v-42h-306v42zM589 -42h-405q-20 0 -34.5 14.5t-14.5 34.5v597q0 20 14.5 34.5t34.5 14.5h521q20 0 34.5 -14.5t14.5 -34.5v-186h39v186q0 36 -26 62t-62 26h-521
q-36 0 -61.5 -26t-25.5 -62v-597q0 -36 25.5 -62t61.5 -26h405v39zM759.5 49q-69.5 0 -119 49.5t-49.5 119t49.5 119t119 49.5t119 -49.5t49.5 -119t-49.5 -119t-119 -49.5zM759.5 346q-53.5 0 -91.5 -37.5t-38 -91t38 -91.5t91.5 -38t91.5 38t38 91.5t-38 91t-91.5 37.5z
M835 42v-73l-75 55l-76 -55v73l-39 14v-165l115 84l114 -84v165zM759.5 287q-28.5 0 -49 -20.5t-20.5 -49t20.5 -49t49 -20.5t49 20.5t20.5 49t-20.5 49t-49 20.5zM759.5 168q-20.5 0 -35 14.5t-14.5 35t14.5 35t35 14.5t35 -14.5t14.5 -35t-14.5 -35t-35 -14.5zM85 727h12
v-2h-12v2z" />
    <glyph glyph-name="uniE603" unicode="&#xe603;" 
d="M506 110l-16 14q-28 26 -50 49q-62 65 -110 140q-72 114 -69 197q5 100 76 168q72 70 175 70q51 0 98.5 -19.5t83.5 -55.5q69 -69 68 -166v-10q-1 -13 -4 -27q-12 -68 -50 -132q-25 -41 -69 -92q-38 -47 -72 -77q-12 -13 -20 -20zM512 707q-86 0 -146 -58t-64 -141
q-3 -70 63 -173q45 -71 105 -134q17 -18 35 -35l13 12q8 8 21 20v1q32 28 68 73h1q41 49 65 87q34 57 45 118v1q2 11 3 22v8q1 79 -56 137q-63 62 -153 62zM512 410q-43 0 -73.5 29.5t-30.5 71t30.5 70.5t73.5 29t73 -29t30 -70.5t-30 -71t-73 -29.5zM512 569
q-26 0 -44.5 -17t-18.5 -41.5t18.5 -42t44.5 -17.5t44 17.5t18 42t-18 41.5t-44 17zM947 476l-137 -48l12 -39l97 34v-450l-272 -71l-286 77l-256 -62v439l99 67l-27 31l-113 -75v0v-509h41l256 64l286 -81l313 90v499z" />
    <glyph glyph-name="uniE604" unicode="&#xe604;" 
d="M4 -57v51h1020v-51h-1020zM4 325h1020v-51h-1020v51zM4 656h1020v-51h-1020v51z" />
    <glyph glyph-name="uniE605" unicode="&#xe605;" 
d="M986 662q0 44 -31.5 75.5t-76.5 31.5h-2l-510 -93q-44 -1 -74.5 -32t-30.5 -75v-489q-35 25 -78 25q-57 0 -97.5 -40.5t-40.5 -98t40.5 -98t97.5 -40.5t97.5 40.5t40.5 97.5v593q0 17 12.5 31.5t25.5 20.5l12 6l510 92q19 -1 32 -14.5t13 -32.5v-474q-35 25 -78 25
q-57 0 -97.5 -40.5t-40.5 -97.5t40.5 -97.5t97.5 -40.5t97.5 40.5t40.5 97.5v587zM183 -112q-32 0 -55 23t-23 55.5t23 55.5t55 23t55 -23t23 -55.5t-23 -55.5t-55 -23zM847.5 -4q-32.5 0 -55.5 23t-23 55.5t23 55.5t55.5 23t55.5 -23t23 -55.5t-23 -55.5t-55.5 -23z" />
    <glyph glyph-name="uniE606" unicode="&#xe606;" 
d="M781 283h-269v166h-37v-166h-291v181l1 1l131 202l40 -5l-131 -201v-137h209v141h118v-141h188v136l-116 202l39 5l118 -205v-179zM943 -106h-896v339h896l-34 -167zM87 -64h813l-29 108h-629v41l629 1l29 107h-813v-257zM209 466h547v-40h-547v40z" />
    <glyph glyph-name="uniE607" unicode="&#xe607;" 
d="M512 764q94 0 180 -37t148 -99t99 -148t37 -180t-37 -180t-99 -148t-148 -99t-180 -37t-180 37t-148 99t-99 148t-37 180t37 180t99 148t148 99t180 37zM512 812q-139 0 -257 -68.5t-186.5 -186.5t-68.5 -257t68.5 -257t186.5 -186.5t257 -68.5t257 68.5t186.5 186.5
t68.5 257t-68.5 257t-186.5 186.5t-257 68.5zM414 364q-39 -137 -82 -204q-13 -21 -34 -12q-19 12 -6 32q51 75 83 199q6 19 26 13q19 -9 13 -28zM538 490v-330q15 -102 -135 -57q-19 6 -15 27q8 15 28 9q94 -28 81 23v328q2 18 20 20q19 -2 21 -20zM735 163q7 -20 -11 -28
q-21 -3 -28 13q-36 119 -87 220q-11 20 8 30q19 7 30 -13q50 -109 88 -222z" />
    <glyph glyph-name="uniE608" unicode="&#xe608;" 
d="M722 765q29 0 49.5 -20t20.5 -49v-342l7 16l-397 -403l17 7h-281q-29 0 -49.5 20.5t-20.5 49.5v745l-23 -24h677zM21 812v-23v-745q0 -48 34.5 -82t82.5 -34h281h9l7 7l397 402l7 7v10v342q0 48 -34 82t-83 34h-677h-24zM776 223l-17 -16l17 -17l93 -93l17 -16l16 16
l70 70l17 17l-17 16l-93 93l-17 17l-16 -17zM846 260l93 -93v33l-70 -70h33l-93 93v-33l70 70h-33zM519 -33l-5 -5l-2 -7l-23 -116l-7 -34l35 7l116 23l7 1l5 5l257 256l17 17l-17 16l-93 93l-17 17l-16 -17zM776 190l93 -93v33l-257 -256l12 7l-117 -24l28 -27l23 116
l-6 -12l257 256h-33zM427 214q13 0 22 -9t9 -22v-9q0 -13 -9 -22.5t-22 -9.5q-14 0 -23 9.5t-9 22.5v9q0 13 9 22t23 9zM278 468q1 -2 2 -5.5t8 -10t17.5 -6.5t17 5.5t8.5 11.5l1 5q-2 54 23 79t76 23q67 -8 70 -76q-5 -30 -51 -79q-60 -61 -60 -109v-33q0 -2 1 -5.5t7.5 -9
t16.5 -5.5q4 0 8 1.5t6.5 3t4.5 3.5t3 4l2 4q1 2 1 3v1v23q0 40 58 96q61 56 61 102q-5 127 -133 132q-148 2 -148 -158z" />
    <glyph glyph-name="uniE609" unicode="&#xe609;" 
d="M711.5 186.5q-6.5 -8.5 -5 -19.5t9.5 -17q63 -49 97.5 -120.5t34.5 -152.5q0 -11 8 -18.5t18.5 -7.5t18 7.5t7.5 18.5q0 94 -39.5 176t-112.5 139q-8 6 -19 4.5t-17.5 -10zM150 -149q11 0 18.5 7.5t7.5 18.5q0 93 45 172t122.5 125t168.5 46q107 0 183 77t76 186
t-76 186.5t-183 77.5t-183 -77.5t-76 -186.5q0 -72 37 -134.5t99 -96.5q-118 -40 -191.5 -144t-73.5 -231q0 -11 7.5 -18.5t18.5 -7.5zM512.5 694q85.5 0 146 -62t60.5 -149t-60.5 -148.5t-146 -61.5t-146 61.5t-60.5 148.5t60.5 149t146 62z" />
    <glyph glyph-name="uniE60A" unicode="&#xe60a;" 
d="M258 74q-48 0 -83.5 3.5t-70.5 12t-54 25t-19 41.5q0 42 55 82.5t132 56.5q9 2 12 12q4 12 -6 23l-1 1q-25 26 -39.5 64.5t-14.5 79.5q0 64 35.5 105.5t90.5 41.5t90.5 -41.5t35.5 -105.5q0 -42 -15 -81t-41 -65q-9 -10 -5 -22q3 -10 12 -13q61 -12 111 -42q6 -4 8 -11.5
t-2 -14t-11.5 -8t-14.5 2.5q-43 26 -99 37q-31 8 -40 38q-10 33 14 59q21 21 33.5 53.5t12.5 66.5q0 49 -25 79.5t-64 30.5t-64 -30.5t-25 -79.5q0 -34 12.5 -66.5t32.5 -52.5q1 -1 2 -3q22 -26 13 -57q-10 -31 -40 -38q-68 -14 -112.5 -46t-44.5 -56q0 -42 190 -45
q7 0 12.5 -5.5t5.5 -13.5t-5.5 -13t-13.5 -5zM633.5 -74q-62.5 0 -109.5 2t-96.5 8.5t-81 18t-51.5 31.5t-20 48q0 55 74 109.5t179 75.5q17 4 22 23q7 21 -10 39q-1 0 -1 1q-34 35 -53.5 87.5t-19.5 108.5q0 86 47 141t121 55t120.5 -55t46.5 -141q0 -56 -20.5 -110
t-54.5 -88q-16 -18 -9 -38q5 -19 22 -23q105 -21 179.5 -75.5t74.5 -109.5q0 -28 -20.5 -48t-52 -31.5t-81 -18t-96.5 -8.5t-109.5 -2zM569 303q29 -32 17 -72q-6 -18 -19 -31t-31 -17q-97 -20 -160.5 -66.5t-63.5 -82.5q0 -71 321.5 -71t321.5 71q0 36 -63.5 82.5
t-160.5 66.5q-38 9 -50 48q-12 41 18 74q30 30 47.5 77t17.5 96q0 70 -36.5 114.5t-94 44.5t-94 -44.5t-36.5 -114.5q0 -49 17.5 -95.5t46.5 -76.5q1 -1 2 -3z" />
    <glyph glyph-name="uniE60B" unicode="&#xe60b;" 
d="M366 4h-104q-64 0 -108.5 45t-44.5 108v397q0 63 44.5 107.5t108.5 44.5h500q63 0 108 -44.5t45 -107.5v-397q0 -63 -45 -108t-108 -45h-131q-11 0 -19 -7l-137 -143q-7 -8 -7 -18.5t8 -18t18.5 -7t17.5 7.5l137 143l-18 -8h131q84 0 144 60t60 144v397q0 84 -60 144
t-144 60h-500q-85 0 -144.5 -60t-59.5 -144v-397q0 -84 59.5 -144t144.5 -60h104q11 0 18.5 7.5t7.5 18t-7.5 18t-18.5 7.5zM280 425h392q11 0 18.5 7.5t7.5 18t-7.5 18t-18.5 7.5h-392q-11 0 -18.5 -7.5t-7.5 -18t7.5 -18t18.5 -7.5zM280 265h464q10 0 17.5 7.5t7.5 18
t-7.5 18t-17.5 7.5h-464q-11 0 -18.5 -7.5t-7.5 -18t7.5 -18t18.5 -7.5z" />
    <glyph glyph-name="uniE60C" unicode="&#xe60c;" 
d="M511 748q-91 0 -174 -35.5t-143 -95.5t-95.5 -143t-35.5 -174t35.5 -173.5t95.5 -142.5t143 -95.5t174 -35.5q158 0 282 100l49 47q56 61 86.5 138t30.5 162q0 91 -35.5 174t-95.5 143t-143 95.5t-174 35.5zM446.5 -21q-19.5 0 -33 14t-13.5 33.5t13.5 33t33 13.5
t33.5 -13.5t14 -33t-14 -33.5t-33.5 -14zM650.5 -21q-19.5 0 -33.5 14t-14 33.5t14 33t33.5 13.5t33 -13.5t13.5 -33t-13.5 -33.5t-33 -14zM791 417l-57 -177q-3 -13 -14 -21.5t-23 -4.5h-282l12 -47h255q12 0 21.5 -9.5t9.5 -22t-9.5 -22t-21.5 -9.5h-267q-4 -1 -10 0h-5
q-13 0 -22.5 9.5t-9.5 21.5l-71 278q-7 8 -7 19v6l-14 57h-33q-13 0 -22 9t-9 22t9 22t22 9h47q4 1 10 0h6q12 0 21.5 -9t9.5 -22l16 -63h394q7 2 13 0q13 0 22 -9t9 -22v-3q2 -7 0 -12z" />
    <glyph glyph-name="uniE60D" unicode="&#xe60d;" 
d="M704 678q-54 0 -105 -24t-87 -65q-35 41 -86.5 65t-105.5 24q-99 0 -167 -67.5t-68 -166.5q0 -35 9.5 -69.5t23.5 -64.5t42.5 -67t53.5 -65t69.5 -71t77.5 -73t92 -81l59 -56l60 56q7 6 21 19q50 46 74.5 69t65.5 62.5t61 61.5t48.5 55.5t42 57.5t28.5 53.5t20.5 56.5
t5.5 56q0 99 -67.5 166.5t-167.5 67.5zM517 12h-5l-4 5q-56 50 -84.5 75.5t-71 66.5t-64 64.5t-48.5 57t-39 57.5t-21 51.5t-9 54.5q0 64 42.5 106.5t106.5 42.5q48 0 91.5 -29t62.5 -73h81q16 44 58.5 73t90.5 29q64 0 107 -42.5t43 -106.5q0 -26 -9 -53.5t-20.5 -51
t-38 -57t-47 -56.5t-63 -64t-69 -66t-82.5 -76q-6 -5 -8 -8z" />
    <glyph glyph-name="uniE60E" unicode="&#xe60e;" 
d="M512 -105l-59 60q-59 51 -92 81t-77.5 73t-69.5 71t-53.5 65.5t-42.5 67t-23.5 64t-9.5 69.5q0 99 68 166.5t167 67.5q54 0 105.5 -23.5t86.5 -65.5q36 42 87 65.5t105 23.5q100 0 167.5 -67.5t67.5 -166.5q0 -35 -9.5 -69.5t-23.5 -64t-42.5 -67t-53 -65.5t-69.5 -71
t-78 -73t-91 -81z" />
    <glyph glyph-name="uniE60F" unicode="&#xe60f;" 
d="M512 809q-103 0 -197.5 -40t-163 -108.5t-108.5 -163t-40 -197.5t40 -197.5t108.5 -163t163 -108.5t197.5 -40t197.5 40t163 108.5t108.5 163t40 197.5t-40 197.5t-108.5 163t-163 108.5t-197.5 40zM512 -145q-90 0 -172.5 35t-142.5 95t-95 142.5t-35 172.5t35 172.5
t95 142.5t142.5 95t172.5 35t172.5 -35t142.5 -95t95 -142t35 -172.5t-35 -173t-95 -142.5t-142.5 -95t-172.5 -35zM579 542l-45 -45l181 -181h-486v-59h487l-170 -169l45 -46l244 244z" />
    <glyph glyph-name="uniE610" unicode="&#xe610;" 
d="M836.5 744q-56.5 0 -96.5 -40t-40 -97q0 -19 5 -37l-399 -168q-18 32 -49.5 50.5t-68.5 18.5q-57 0 -97 -40t-40 -97t40 -97t97 -40q59 0 100 44l257 -185q-16 -30 -16 -63q0 -57 40 -97t96.5 -40t96.5 40t40 96.5t-40 96.5t-97 40q-60 0 -101 -45l-256 185q16 30 16 65
q0 18 -5 37l399 167q19 -31 50 -49t68 -18q57 0 97 40t40 96.5t-40 96.5t-96.5 40zM665.5 95q42.5 0 72.5 -30t30 -72.5t-30 -72.5t-72.5 -30t-72.5 30t-30 72.5t30 72.5t72.5 30zM187.5 231q-42.5 0 -72.5 30.5t-30 73t30 72.5t72.5 30t72.5 -30t30 -72.5t-30 -73
t-72.5 -30.5zM836 505q-42 0 -72 30t-30 72.5t30 72.5t72 30t72 -30t30 -72.5t-30 -72.5t-72 -30z" />
    <glyph glyph-name="uniE611" unicode="&#xe611;" 
d="M389 -89zM337 -88.5q0 21.5 15 36.5t36.5 15t36.5 -15t15 -36.5t-15 -37t-36.5 -15.5t-36.5 15.5t-15 37zM822 -89zM770 -88.5q0 21.5 15 36.5t36.5 15t37 -15t15.5 -36.5t-15.5 -37t-37 -15.5t-36.5 15.5t-15 37zM863 50l-496 -2l-16 2q-27 12 -36 70l-63 479v2
q-5 62 -43 96q-20 18 -42 22q-3 1 -6 1h-63q-13 0 -22 -8.5t-9 -21.5t9 -22t21 -9h59q24 -9 32 -43v-3l67 -501q4 -30 14 -53.5t20 -35.5t22 -20t18 -10t10 -3q1 -1 3 -1l20 -2h3l498 2q13 0 22 9t9 21.5t-9 21.5t-22 9zM952 520q13 53 -11 87q-24 33 -65 36h-3l-521 -2
q-13 0 -22 -9t-9 -21.5t9 -21.5t22 -9l520 2q13 -2 18 -11q6 -7 5 -22q-1 -1 -1 -3l-2 -15q0 -2 -1 -3q-1 -5 -1 -11l-37 -250q-1 -2 -1 -4q-2 -21 -9 -34.5t-11.5 -16t-8.5 -3.5l-405 -36q-12 -1 -20.5 -11t-6.5 -22q1 -12 9.5 -20t20.5 -8h3l405 36q22 2 42 18
q21 17 32 46q5 7 6 14z" />
    <glyph glyph-name="uniE612" unicode="&#xe612;" 
d="M509.5 702q81.5 0 155.5 -31q72 -31 127 -86t85 -127q32 -74 32 -155.5t-32 -155.5q-30 -71 -85 -126.5t-127 -85.5q-74 -32 -155.5 -32t-155.5 32q-72 30 -127 85.5t-86 126.5q-31 74 -31 155.5t31 155.5q31 72 86 127t127 86q74 31 155.5 31zM509 748
q-90 0 -172.5 -35.5t-142 -95t-95 -142t-35.5 -173t35.5 -173t95 -142t142 -95t173 -35.5t173 35.5t142 95t95 142t35.5 173t-35.5 173t-95 142t-142 95t-173.5 35.5z" />
    <glyph glyph-name="uniE613" unicode="&#xe613;" 
d="M512 779q-97 0 -186 -38t-153 -102t-102 -153t-38 -186t38 -186t102 -153t153 -102t186 -38t186 38t153 102t102 153t38 186t-38 186t-102 153t-153 102t-186 38zM479 121l-44 -45l-44 45l-198 201l44 45l198 -201l352 358l44 -45z" />
    <glyph glyph-name="uniE614" unicode="&#xe614;" horiz-adv-x="1000" 
d="M746 346h-201v201q0 13 -8.5 21.5t-21 8.5t-21.5 -8.5t-9 -21.5v-201h-201q-12 0 -21 -8.5t-9 -21t9 -21.5t21 -9h201v-201q0 -12 9 -20.5t21.5 -8.5t21 8.5t8.5 20.5v201h201q12 0 21 9t9 21.5t-9 21t-21 8.5z" />
    <glyph glyph-name="uniE615" unicode="&#xe615;" 
d="M714 747h-433q-9 0 -15.5 -6.5t-6.5 -15.5v-844q0 -9 6.5 -15.5t15.5 -6.5h433q9 0 15.5 6.5t6.5 15.5v844q0 9 -6.5 15.5t-15.5 6.5zM497.5 -75q-16.5 0 -27.5 11.5t-11 27.5t11 27.5t27.5 11.5t27.5 -11.5t11 -27.5t-11 -27.5t-27.5 -11.5zM681 59h-367v622h367v-622z
" />
    <glyph glyph-name="uniE616" unicode="&#xe616;" 
d="M896 280h-768q-8 0 -14 6t-6 14.5t6 14.5t14 6h768q8 0 14 -6t6 -14.5t-6 -14.5t-14 -6z" />
    <glyph glyph-name="uniE617" unicode="&#xe617;" 
d="M512 768q-98 0 -186.5 -38t-153 -102.5t-102.5 -153t-38 -186.5t38 -186.5t102.5 -153t153 -102.5t186.5 -38t186.5 38t153 102.5t102.5 153t38 186.5t-38 186.5t-102.5 153t-153 102.5t-186.5 38zM834 3q-1 13 -4 28.5t-11 38.5t-25 44t-41 33q-26 13 -44.5 16t-49.5 16
l-77 34l-1 60q3 2 7 6.5t12.5 23.5t11.5 44q10 -3 14.5 7t5.5 24q0 1 1 10t1.5 14.5t0 13t-3.5 11t-8 1.5q7 51 5 66q-4 39 -32.5 67.5t-84.5 30.5q-49 -2 -81.5 -31.5t-36.5 -66.5q-1 -16 5 -66q-5 1 -7.5 -2t-3 -10t-0.5 -13t1 -15t1 -10q1 -14 6 -24t14 -7
q4 -25 11.5 -44t13.5 -25l6 -6v-60q-15 -9 -78 -35q-31 -12 -49.5 -14.5t-44.5 -15.5q-23 -12 -40 -31.5t-25 -42t-11 -38t-4 -29.5q-46 51 -72 115q-34 79 -34 167t34 167q32 78 91.5 137.5t137.5 91.5q79 34 167 34t167 -34q78 -32 137.5 -91.5t91.5 -137.5
q34 -79 34 -167t-34 -167q-27 -65 -74 -118z" />
    <glyph glyph-name="uniE618" unicode="&#xe618;" 
d="M339 263q22 0 42.5 -3t42 -10t34.5 -12t37.5 -15.5t34.5 -14.5q-53 -64 -98.5 -98.5t-92.5 -34.5q-24 0 -49.5 4.5t-51 14.5t-41.5 29t-16 45q1 44 50 69.5t108 25.5zM938 651v-702q0 -31 -22 -53t-53 -22h-702q-31 0 -53 22t-22 53v702q0 31 22 53t53 22h702
q31 0 53 -22t22 -53zM938 155q-46 10 -282 93q37 63 57 136l3 10l2 10q2 6 3.5 13.5t1.5 10.5h-169v43h213v43h-213v86h-86v-86h-213v-43h213v-43h-170v-42h318q-11 -59 -41 -111q-15 5 -48.5 14t-91.5 20t-97 11q-38 0 -80 -17t-74.5 -53.5t-32.5 -81.5q0 -73 48.5 -112.5
t138.5 -39.5q161 0 268 160q75 -33 191 -88.5t141 -67.5v135z" />
    <glyph glyph-name="uniE619" unicode="&#xe619;" 
d="M693 465q15 0 35 -2q-23 109 -127.5 181.5t-238.5 72.5q-98 0 -181 -40.5t-132 -111.5t-49 -156q0 -143 145 -245l-36 -109l127 64q6 -2 25 -5.5t27 -5t22.5 -4t26.5 -3t25 -0.5q16 0 34 1q-11 38 -11 76q0 119 89.5 203t218.5 84zM498 563q21 0 33.5 -12.5t12.5 -33
t-12.5 -33t-33.5 -12.5t-37.5 13t-16.5 32.5t16.5 32.5t37.5 13zM245 472q-22 0 -38.5 13t-16.5 32.5t16.5 32.5t38.5 13q20 0 32.5 -12.5t12.5 -33t-12.5 -33t-32.5 -12.5zM1024 182q0 71 -43 132t-113.5 96t-151.5 35q-129 0 -218.5 -77t-89.5 -186t89.5 -186t218.5 -77
q37 0 109 18l99 -54l-27 90q127 96 127 209zM616 228q-13 0 -24.5 11t-11.5 24.5t11.5 25t24.5 11.5q20 0 33 -11t13 -25.5t-13 -25t-33 -10.5zM815 228q-13 0 -24.5 11t-11.5 24.5t11.5 25t24.5 11.5q20 0 33 -11t13 -25.5t-13 -25t-33 -10.5z" />
    <glyph glyph-name="uniE61A" unicode="&#xe61a;" 
d="M0 -212v1024h654v-57h-597v-910h910v597h57v-654h-1024zM948 615l-121 121l40 40q10 10 24 13.5t34.5 -4.5t42 -29.5t29.5 -41.5t4.5 -34t-13.5 -25zM344 253l121 -121l-181 -60zM907 575l-402 -403l-121 121l403 402z" />
    <glyph glyph-name="uniE61B" unicode="&#xe61b;" 
d="M341 328h86v-85h-86v85zM341 499h86v-85h-86v85zM142 499h86v-85h-86v85zM142 670h86v-86h-86v86zM341 -13h86v-85h-86v85zM341 158h86v-86h-86v86zM142 328h86v-85h-86v85zM341 670h86v-86h-86v86zM142 158h86v-86h-86v86zM825 328h85v-85h-85v85zM142 -13h86v-85h-86
v85zM825 -13h85v-85h-85v85zM825 158h85v-86h-85v86zM626 -13h85v-85h-85v85zM971 471h-402v284v57h-53h-463h-43h-10v-1024h28h25h463h53h402h25h28v683h-10h-43zM516 -155h-463v910h463v-910zM971 -155h-402v569h402v-569zM626 158h85v-86h-85v86zM626 328h85v-85h-85v85z
" />
    <glyph glyph-name="uniE61C" unicode="&#xe61c;" 
d="M296 202q-90 92 -90 222t90 222q91 92 218 92q128 0 219 -92q90 -92 90 -222t-90 -222l-38 37q74 77 74 185t-74.5 184.5t-180.5 76.5q-105 0 -180 -76.5t-75 -184.5t75 -185zM514 -156l-163 262l45 28l118 -189l119 189l45 -28zM514.5 262q-69.5 0 -118.5 49.5
t-49 118.5t49 118t118.5 49t118.5 -49t49 -118t-49 -118.5t-118.5 -49.5zM514.5 544q-47.5 0 -81 -33.5t-33.5 -80.5t33.5 -80.5t81 -33.5t81 33.5t33.5 80.5t-33.5 80.5t-81 33.5z" />
    <glyph glyph-name="uniE61D" unicode="&#xe61d;" 
d="M772 -116h-520q-65 0 -110.5 45.5t-45.5 110.5v104v312v104q0 65 45.5 110.5t110.5 45.5h312q50 0 90 -29t56 -75h62q65 0 110.5 -45.5t45.5 -110.5v-78v-208v-130q0 -65 -45.5 -110.5t-110.5 -45.5zM564 664h-312q-40 0 -69 -26.5t-34 -64.5q45 39 103 39h402
q-14 24 -38 38t-52 14zM876 352q0 11 -7.5 18.5t-18.5 7.5h-260q-11 0 -18.5 -7.5t-7.5 -18.5v-156q0 -11 7.5 -18.5t18.5 -7.5h260q11 0 18.5 7.5t7.5 18.5v156zM876 118h-312q-22 0 -37 15t-15 37v208q0 22 15 37t37 15h312v26q0 43 -30.5 73.5t-73.5 30.5h-520
q-43 0 -73.5 -30.5t-30.5 -73.5v-416q0 -43 30.5 -73.5t73.5 -30.5h520q43 0 73.5 30.5t30.5 73.5v78zM616 300h52v-52h-52v52z" />
    <glyph glyph-name="uniE61E" unicode="&#xe61e;" 
d="M947 736q-22 15 -47 5l-388 -155l-387 155q-25 10 -47.5 -5t-22.5 -42v-650q0 -16 9 -28.5t23 -18.5l405 -162q9 -3 10 -3q5 -1 10 -1t10 1l10 3l405 162q15 6 23.5 18.5t8.5 28.5v650q0 27 -22 42zM919 45l-369 -147v632l369 147v-632zM849 253l-203 -81v-55l203 82v54z
M849 464l-203 -81v-53l203 81v53zM482 -105l-372 148v631l372 -148v-631zM376 372l-203 81v-55l203 -81v55zM376 159l-203 82v-53l203 -82v53z" />
    <glyph glyph-name="uniE61F" unicode="&#xe61f;" 
d="M945 128v315v3v257q0 39 -27.5 67t-66.5 28h-678q-39 0 -66.5 -28t-27.5 -67v-807q0 -39 27.5 -66.5t66.5 -27.5h316q11 0 19 7.5t8 18.5t-8 18.5t-19 7.5h-316q-17 0 -29.5 12t-12.5 30v807q0 18 12.5 30t29.5 12h678q17 0 29.5 -12t12.5 -30v-557h-237q-23 0 -39 -16.5
t-16 -39.5v-258q0 -31 19 -31q11 0 24 13l288 289q12 11 13 21v4zM853 95l-202 -202v197q0 5 5 5h197zM213 514h597q12 0 21 9t9 21.5t-9 21t-21 8.5h-597q-12 0 -21 -8.5t-9 -21t9 -21.5t21 -9zM213 291h597q12 0 21 9t9 21t-9 21t-21 9h-597q-12 0 -21 -9t-9 -21t9 -21
t21 -9zM213 291z" />
    <glyph glyph-name="uniE620" unicode="&#xe620;" 
d="M644 -105q-25 0 -41 18q-16 17 -42.5 35t-48.5 18q-23 0 -49.5 -18t-41.5 -34q-16 -18 -41 -18q-11 0 -21 5h-1l-107 60l-1 1q-14 10 -19 27.5t2 33.5q10 23 10 43q0 47 -33 80t-80 33h-4q-14 0 -24 11t-13 30q-10 48 -10 85t10 85q3 19 13.5 30t23.5 10h4q47 0 80 33.5
t33 79.5q0 21 -10 44q-7 16 -2 33.5t19 27.5l2 1l112 62h1q10 4 21 4q25 0 41 -16q15 -17 41 -34t48 -17t47.5 17t41.5 33t40 16q12 0 21 -4l2 -1l108 -60l1 -1q15 -10 20 -27.5t-2 -33.5q-10 -23 -10 -44q0 -46 33 -79.5t80 -33.5h3q14 1 24.5 -10t13.5 -30q9 -48 9 -85
t-9 -85q-3 -19 -13.5 -30t-24.5 -11h-3q-47 0 -80 -33t-33 -80q0 -20 10 -43q7 -16 2 -33.5t-20 -27.5l-1 -1l-110 -61l-1 -1q-10 -4 -21 -4zM641 -53q1 -1 3 -1l103 57q-13 33 -13 63q0 66 45 113.5t110 50.5q8 45 8 75t-8 75q-65 3 -110 50.5t-45 112.5q0 31 13 64
l-101 56h-1q-2 0 -3 -1q-16 -16 -38 -32q-47 -33 -88 -33t-89 34q-22 16 -37 32q-2 1 -4 1h-1l-105 -57q14 -33 14 -64q0 -65 -45 -112.5t-110 -50.5q-8 -45 -8 -75t8 -75q65 -3 110 -50.5t45 -113.5q0 -30 -14 -63l100 -55h3q16 18 38 34q49 35 91 35t90 -36q23 -16 39 -34
zM512 155q-62 0 -106 44t-44 106.5t44 106.5t106 44t106 -44t44 -106.5t-44 -106.5t-106 -44zM512 405q-41 0 -70 -29t-29 -70.5t29 -70.5t70 -29t70 29t29 70.5t-29 70.5t-70 29z" />
    <glyph glyph-name="uniE621" unicode="&#xe621;" 
d="M512 748q-91 0 -174 -35.5t-143 -95.5t-95.5 -142.5t-35.5 -173.5t35.5 -174t95.5 -143t143 -95.5t174 -35.5t173.5 35.5t142.5 95.5t95.5 143t35.5 174t-35.5 173.5t-95.5 142.5t-142.5 95.5t-173.5 35.5zM512 -68q-100 0 -185 49.5t-134.5 134.5t-49.5 185t49.5 185
t134.5 134t185 49t185 -49t134.5 -134t49.5 -185t-49.5 -185t-134.5 -134.5t-185 -49.5zM560 198zM341 81v274q-25 -14 -54 -21v34q69 42 90 149h63q-18 -69 -40 -103v-333h-59zM424 368v42h92q-4 51 -4 110h65q2 -63 2 -110h150v-42h-149q6 -84 16 -131q19 -109 68 -111
q27 -2 27 31h44q2 -76 -71 -74q-97 -2 -129 154q-12 55 -17 131h-94zM645 431q-6 44 -25 80h50q21 -46 27 -80h-52z" />
    <glyph glyph-name="uniE622" unicode="&#xe622;" 
d="M615 172l1 1q30 20 66 34l7 2l-7 4q-25 14 -50 23l-13 6l12 8q59 40 92 103t33 135q0 120 -85.5 205.5t-206.5 85.5q-120 0 -205 -85t-85 -204q0 -72 33 -135t92 -103l12 -8l-13 -6q-131 -51 -212 -167q-78 -112 -81 -250v-3h68v3q4 142 100 249q99 111 245 128h1h2
q27 2 51 2t43 -2h5q48 -7 93 -25zM464 258q-97 0 -164.5 67.5t-67.5 164t67.5 164t164.5 67.5t164.5 -67.5t67.5 -164t-67.5 -164t-164.5 -67.5zM1024 -13l-228 181v-126h-192q-15 0 -21 -14v-2l-1 -1v-76h1v-3q6 -14 21 -14h192v-126z" />
    <glyph glyph-name="uniE623" unicode="&#xe623;" horiz-adv-x="1210" 
d="M183 616h899q12 0 21 -9t9 -21v-604q0 -13 -9 -21.5t-21 -8.5h-899q-13 0 -21.5 8.5t-8.5 21.5q0 7 3 13l59 153l-60 149q-6 13 1 26l60 121l-61 129q-5 11 -0.5 23t15.5 17q6 3 12 3h1zM1052 556h-822l46 -99q7 -13 0 -27l-61 -123l60 -147q5 -11 0 -22l-49 -126h826
v544zM816 438q6 0 10.5 -4.5t4.5 -10.5v-1q0 -6 -4.5 -10.5t-10.5 -4.5h-209q0 -1 -1 -3q-11 -27 -26 -53h239q7 0 11.5 -4.5t4.5 -10.5v-1q0 -7 -4.5 -11.5t-11.5 -4.5h-71l85 -55q5 -3 6 -10q1 -5 -2 -11v-1q-8 -13 -22 -5l-124 82h-133q-19 -24 -47 -46q-27 -21 -63 -39
q-7 -2 -12 0q-6 2 -9 9v1q-6 13 7 19q34 16 58 35q10 7 24 21h-73q-7 0 -11.5 4.5t-4.5 11.5v1q0 6 5 10.5t11 4.5h99q18 27 31 56h-125q-7 0 -11.5 4.5t-4.5 10.5v1q0 6 4.5 10.5t11.5 4.5h19v40q0 7 4 11.5t11 4.5h1q6 0 10.5 -4.5t4.5 -11.5v-40h87q8 22 15 50
q5 15 19 11h2q6 -2 9 -7.5t2 -12.5q-1 -3 -13 -41h148v41q0 6 4 10.5t11 4.5t11.5 -4.5t4.5 -10.5v-41h18zM759 244q12 0 19 -4q31 -12 31 -45v-61q0 -20 -15 -35t-35 -15h-59q-6 0 -10.5 4.5t-4.5 10.5v1q0 6 4.5 11t10.5 5h59q8 0 13 5t5 13v61q0 8 -5 13q-6 5 -13 5h-193
q0 -1 -0.5 -2t-0.5 -2q-27 -75 -103 -118q-5 -3 -12 -2q-6 3 -9 8l-1 1q-7 13 6 20q62 35 87 95h-50q-6 0 -10.5 4.5t-4.5 11.5q0 6 4.5 10.5t10.5 4.5h276zM816 445q9 0 16 -6.5t7 -15.5v-1q0 -9 -7 -15.5t-16 -6.5h-204q-5 -14 -12 -27q-3 -6 -7 -15h226q10 0 16.5 -6.5
t6.5 -15.5v-1q0 -10 -6.5 -16.5t-16.5 -6.5h-46l64 -42q4 -2 6 -6v-1q3 -3 3 -7v0q1 -5 1 -9q-1 -4 -3 -8q-1 -1 -1 -2q-6 -7 -14 -9q-9 -2 -18 3v1l-122 80h-127l-20 -22q-12 -11 -26 -23q-10 -8 -22 -15h265q6 0 12 -1q6 -2 11 -4q15 -7 25 -21t10 -31v-61
q0 -11 -4.5 -21.5t-13 -18.5t-18.5 -13q-11 -4 -22 -4h-58q-10 0 -17 6v0q-6 7 -6 16v1q0 10 7 16q6 7 16 7h58q3 0 5 1t3 2l1 1q1 1 1 2v0q1 2 1 5v61q0 2 -0.5 4t-2.5 3q-1 2 -3 3h-1h-4h-187q-15 -40 -41 -69q-25 -29 -65 -51q-4 -3 -9 -3v-1q-4 0 -8 1h-1q-5 2 -8 5
q-4 3 -6 7v0v1q-4 7 -2 16t10 14v0q31 17 51 39q17 18 28 41h-38q-9 0 -15 7q-7 7 -7 16v1v4q-5 -3 -10 -5l-1 -1q-4 -1 -8 -1v0q-5 0 -9 2q-5 1 -8 4t-5 8v1q-4 8 0 17q3 8 11 12q17 8 31 16q14 9 25 18h1q4 4 9 8h-54q-10 0 -16.5 6.5t-6.5 16.5v1q0 9 7 16v0q6 7 16 7h95
q7 11 14 23v0l9 18h-114q-9 0 -15.5 6.5t-6.5 16.5t6.5 16.5t15.5 6.5h12v33q0 9 6.5 16t16.5 7t17 -7v0q6 -7 6 -16v-33h74q4 11 7 19q3 10 7 25v1q3 9 11 13l1 1q8 4 16 1h1h1q9 -3 14 -11v-1q4 -8 2 -16v-1q-3 -10 -10 -32h130v34q0 9 7 16q6 6 16 6t16 -6v0h1
q6 -7 6 -16v-34h11zM821 428q-2 2 -5 2h-18q-8 0 -8 8v40q0 4 -2 6t-6 2t-6 -2t-2 -6v-40q0 -8 -8 -8h-148q-1 0 -2 1q-7 2 -5 9l3 9q8 23 10 32v1q1 3 0 5v1q-2 3 -5 3l-1 1h-1q-3 1 -5 -1h-1q-2 -1 -4 -5q-3 -11 -7 -25.5t-8 -24.5q-1 -5 -7 -5h-87q-7 0 -7 7v41q0 3 -3 5
q-2 2 -5 2h-1q-3 0 -5.5 -2t-2.5 -6v-40q0 -8 -7 -8h-19q-4 0 -6 -2t-2 -5q0 -4 2 -6t6 -2h125q1 0 3 -1q6 -3 3 -10q-6 -14 -14 -29t-16 -28q-2 -3 -7 -3h-99q-4 0 -6 -3q-2 -2 -2 -5v-1q0 -4 2 -6t6 -2h73q3 0 5 -2q5 -6 0 -11q-6 -6 -12 -11.5t-12 -10.5h-1
q-12 -10 -27 -19t-32 -16q-2 -2 -3 -5q-2 -3 -1 -5l1 -1q1 -2 2 -3q0 -1 2 -1l1 -1h3h3q19 9 33 18q15 10 29 20q13 10 25 22q11 11 20 22q2 4 6 4h133q2 0 4 -1l124 -82q3 -2 7 -1q3 0 4 3l1 1q1 2 1 3v3q-1 1 -1 2l-1 1l-2 2l-84 55q-4 2 -4 6q0 8 8 8h71q4 0 6 2t2 6v1
q0 3 -2 5.5t-6 2.5h-239q-2 0 -4 1q-7 3 -3 10q8 12 14 25q7 13 12 26v1q1 1 1 2q1 5 7 5h209q3 0 5 3q3 2 3 5v1q0 3 -3 5zM593 491zM798 494q6 -5 0 -10v10zM768 236q-4 1 -9 1h-275q-3 0 -5.5 -2.5t-2.5 -5.5v-1q0 -3 2 -5.5t6 -2.5h49h3q7 -3 4 -10q-13 -33 -36 -57
q-22 -23 -54 -41q-3 -2 -3.5 -5t0.5 -5l1 -2l2 -2l2 -2h3q2 0 3 1v0q38 22 62 48q25 28 38 66v1l1 2q1 6 7 6h193q5 0 10 -1v-1q4 -1 8 -5v0h1q4 -4 5 -9q2 -4 2 -9v-61q0 -6 -2 -10q-2 -5 -5 -8q-4 -4 -9 -6q-4 -2 -10 -2h-58q-3 0 -6 -2v0q-2 -3 -2 -5v-1q0 -4 2 -6t6 -2
h58q8 0 16 3t14 9q6 7 10 14q3 8 3 16v61q0 13 -7 23t-19 15l-1 1q-4 1 -7 2zM776 233zM448 82z" />
    <glyph glyph-name="uniE624" unicode="&#xe624;" 
d="M979 501q-38 91 -108.5 161.5t-162.5 109.5q-95 40 -198.5 40t-198.5 -40q-91 -39 -161.5 -109.5t-109.5 -161.5q-40 -95 -40 -198.5t40 -198.5q39 -92 109.5 -162.5t161.5 -108.5q95 -40 198.5 -40t198.5 40q92 38 162.5 108.5t108.5 162.5q40 95 40 198.5t-40 198.5z
M510 -165q-95 0 -181.5 37t-149 99.5t-99.5 149t-37 181.5t37 181.5t99.5 149t149 99.5t181.5 37t181.5 -37t149 -99.5t99.5 -149t37 -181.5t-37 -181.5t-99.5 -149t-149 -99.5t-181.5 -37zM639 216q40 6 66 37t26 72q0 45 -32 77.5t-77 32.5q-13 0 -27 -4q-7 54 -49 90
t-98 36q-61 0 -104.5 -42.5t-43.5 -102.5q0 -54 35.5 -94t88.5 -49q-72 -10 -120.5 -73.5t-48.5 -147.5h387h122q0 64 -35.5 112t-89.5 56zM479 48h-61q0 64 36 112t89 56q-39 6 -65 37t-26 72q0 45 31.5 77.5t77.5 32.5q13 0 30 -5q-35 -11 -56.5 -40t-21.5 -65
q0 -41 26 -72t65 -37q-53 -8 -89 -56t-36 -112z" />
    <glyph glyph-name="uniE625" unicode="&#xe625;" 
d="M457 286q-148 147 -108 186q3 3 9 8q16 17 23.5 25.5t15.5 25t5 31.5t-14 38t-34 51q-15 19 -30 30.5t-27 17t-26 3t-22.5 -5t-22 -13t-19.5 -16t-19.5 -19.5t-17.5 -18q-15 -16 -18.5 -47t8 -75.5t35.5 -94.5t67 -109t98.5 -114.5t114.5 -98.5t109 -67t94.5 -35.5
t75.5 -8t47 19.5q4 3 18 16.5t19.5 19.5t16 19.5t13 22t5 22.5t-3 26t-17 27t-30.5 30q-28 23 -51 34t-38 14t-31.5 -5t-25 -15.5t-25.5 -23.5q-5 -6 -8 -9q-39 -39 -186 108v0z" />
    <glyph glyph-name="uniE626" unicode="&#xe626;" 
d="M856 184q-6 81 -83 167q3 7 4.5 21.5t-5 37.5t-22.5 40v2q0 107 -67 177t-164 71q-97 -1 -163.5 -71t-66.5 -177v-2q-17 -17 -23 -40t-5 -37.5t4 -21.5q-77 -86 -83 -167q-2 -41 12 -59q7 -7 17 -4.5t23.5 17.5t24.5 38q13 -46 54 -100q-26 -6 -42 -24t-17 -36.5t7 -35.5
q23 -38 93 -38q106 0 150 42q5 5 15 5t16 -5q43 -42 149 -42q70 0 94 38q7 17 6.5 35.5t-16.5 36.5t-42 24q40 54 53 100q11 -23 24.5 -38t24 -17.5t16.5 4.5q14 18 12 59z" />
    <glyph glyph-name="uniE627" unicode="&#xe627;" 
d="M743 310q-17 4 -21.5 10.5t-1.5 11.5l4 6q1 2 3.5 6.5t6 17t4.5 25t-4 28t-18 27.5q-31 26 -72 22.5t-77.5 -15.5t-36.5 -14q-10 -3 -17.5 -4.5t-11.5 0t-6 3.5t-1.5 8t1 10t3 13.5t3.5 15.5q0 16 -2.5 30t-12 29.5t-25 23.5t-44 7.5t-66.5 -13.5q-37 -13 -76.5 -39
t-69 -54t-54 -54t-36.5 -43l-13 -17q-22 -30 -37.5 -60.5t-21.5 -52.5t-8.5 -40t-2.5 -27l1 -9q6 -53 31.5 -94.5t61 -67.5t84 -44t93 -26.5t94.5 -12.5q81 -6 168 13.5t162 66.5t106 113q19 39 19 73t-12 55.5t-31 38t-36 24t-30 9.5zM408 -31q-118 -6 -201 46t-83 131
q0 78 82.5 134.5t201.5 61.5q120 6 202.5 -39.5t82.5 -122.5q0 -80 -84 -143t-201 -68zM377 273q-32 -4 -57.5 -15t-39.5 -26t-24 -32.5t-13.5 -33.5t-5 -30t-1.5 -22l1 -8v-5q0 -3 2.5 -12.5t6 -18t12.5 -18.5t22 -17q71 -35 134 -21t101 64q15 18 20 45.5t-2.5 55.5
t-24.5 51.5t-51.5 35.5t-79.5 7zM337 64.5q-22 -2.5 -37.5 9t-15.5 29.5q0 19 14.5 35t35.5 19q25 2 40.5 -10t15.5 -31t-15.5 -34t-37.5 -17.5zM430.5 144.5q-7.5 -5.5 -15.5 -5t-12 7.5q-5 6 -3 15.5t9 14.5q9 6 17 5t12 -7.5t2 -15.5t-9.5 -14.5zM820 375q9 0 16.5 6
t8.5 15v3q4 36 -1.5 63t-18 42t-28 25t-32 12.5t-30.5 3.5t-23 -1l-9 -1q-10 0 -18 -7.5t-8 -18.5t8 -18.5t18 -7.5q86 19 93 -55q1 -19 -2 -36q0 -10 7.5 -17.5t18.5 -7.5zM801 678q-55 13 -129 -1q-1 0 -2 -1t-2 -1h-1q-12 -4 -19.5 -14t-7.5 -23q0 -15 11 -26.5t26 -11.5
q21 3 34 8q6 1 19.5 2.5t36 -4.5t45 -14.5t46.5 -28.5t40 -47q29 -65 12 -126q-8 -18 -8 -36q0 -15 11 -24.5t27 -9.5t24.5 6t11.5 26q20 61 15.5 110.5t-21.5 86.5t-46.5 63.5t-60 42.5t-62.5 23z" />
    <glyph glyph-name="uniE628" unicode="&#xe628;" 
d="M889 104h-99v99q0 17 -11.5 28.5t-28 11.5t-28 -11.5t-11.5 -28.5v-99h-100q-16 0 -27.5 -11.5t-11.5 -28t11.5 -28t27.5 -11.5h100v-99q0 -17 11.5 -28.5t28 -11.5t28 11.5t11.5 28.5v99h99q16 0 28 11.5t12 28t-12 28t-28 11.5zM507 2h-292q-16 0 -28 11.5t-12 28.5
v555q0 16 12 28t28 12h555q17 0 28.5 -12t11.5 -28v-282v-1q0 -16 11.5 -27.5t28 -11.5t28 11.5t11.5 27.5v1v322q0 32 -23 55.5t-56 23.5h-635q-32 0 -55.5 -23.5t-23.5 -55.5v-635q0 -33 23.5 -56t55.5 -23h332q17 0 28.5 11.5t11.5 28t-11.5 28t-28.5 11.5zM507 119
q14 25 38.5 40t54.5 15h42v42q0 32 17.5 58t45.5 39v2l-54 163l-188 -243l-50 85l-200 -201h294zM413 458q0 25 -17 42.5t-42 17.5t-42.5 -17.5t-17.5 -42.5t17.5 -42t42.5 -17t42 17t17 42z" />
    <glyph glyph-name="uniE629" unicode="&#xe629;" 
d="M824 -96q5 -28 -9.5 -39t-40.5 2l-253 125l-248 -138q-26 -14 -40.5 -4t-10.5 39l43 281l-206 193q-21 19 -16 36.5t34 22.5l280 48l121 257q12 27 30 27t31 -25l130 -251l281 -34q29 -4 35 -21t-15 -37l-199 -204zM824 -96z" />
    <glyph glyph-name="uniE62A" unicode="&#xe62a;" 
d="M512 812q-139 0 -257 -68.5t-186.5 -186.5t-68.5 -257t68.5 -257t186.5 -186.5t257 -68.5t257 68.5t186.5 186.5t68.5 257t-68.5 257t-186.5 186.5t-257 68.5zM782 141q-8 -4 -21.5 5.5t-27.5 29.5q-9 -41 -48 -74q19 -7 30.5 -18.5t11.5 -24.5q0 -22 -30 -37t-72 -15
q-38 0 -67 12.5t-34 30.5h-13q-6 -18 -34.5 -30.5t-66.5 -12.5q-43 0 -73 15t-30 37q0 28 42 43q-39 33 -48 74q-30 -43 -49 -35q-13 7 -11 38.5t19 69.5q12 29 28 49.5t29 25.5v8q0 24 12 41v3q0 12 5 19q5 81 54.5 134t130 53t129.5 -53t53 -133q6 -10 6 -19v-3
q11 -17 11 -41v-7q14 -5 29.5 -25.5t28.5 -50.5q15 -39 17 -70t-11 -39z" />
    <glyph glyph-name="uniE62B" unicode="&#xe62b;" 
d="M580 300q-9 0 -16.5 -7t-7.5 -17q0 -8 7.5 -14.5t16.5 -6.5q12 0 21 6.5t9 14.5q0 10 -8.5 17t-21.5 7v0zM503 413q14 0 22 8t8 21q0 14 -8 21.5t-22 7.5t-24 -8t-10 -21q0 -12 10 -20.5t24 -8.5v0zM512 812q-104 0 -199 -40.5t-163.5 -109t-109 -163.5t-40.5 -199
t40.5 -199t109 -163.5t163.5 -109t199 -40.5t199 40.5t163.5 109t109 163.5t40.5 199t-40.5 199t-109 163.5t-163.5 109t-199 40.5v0zM415 170q-36 0 -82 14l-85 -43l25 72q-95 66 -95 158q0 85 69.5 143t167.5 58q87 0 155 -47t83 -119q-12 3 -23 3q-84 0 -142.5 -55
t-58.5 -133q0 -23 7 -50q-7 -1 -21 -1v0zM763 89l17 -61l-64 36q-4 -1 -21.5 -5t-28 -5.5t-21.5 -1.5q-84 0 -142.5 50t-58.5 121.5t58.5 122t142.5 50.5q80 0 140.5 -51t60.5 -121q0 -75 -83 -135v0zM338 471q-14 0 -25 -8t-11 -21q0 -12 11 -20.5t25 -8.5q12 0 21 8t9 21
q0 14 -8.5 21.5t-21.5 7.5v0zM711 300q-10 0 -17 -7t-7 -17q0 -8 7 -14.5t17 -6.5q12 0 20.5 6.5t8.5 14.5q0 10 -8.5 17t-20.5 7v0zM711 300z" />
    <glyph glyph-name="uniE62C" unicode="&#xe62c;" 
d="M512 812q-104 0 -199 -40.5t-163.5 -109t-109 -163.5t-40.5 -199t40.5 -199t109 -163.5t163.5 -109t199 -40.5t199 40.5t163.5 109t109 163.5t40.5 199t-40.5 199t-109 163.5t-163.5 109t-199 40.5zM464 45q-66 0 -126 19.5t-99 59t-39 89.5q0 83 94 177q59 59 120 83
t87 -3q23 -22 7 -73q-4 -11 6 -10q9 1 9 3q49 20 86.5 20t53.5 -21q16 -23 0 -63q-3 -8 -0.5 -11t11.5 -5q31 -10 53.5 -31.5t22.5 -54.5q0 -65 -82 -122t-204 -57zM701 377q7 21 -8 38t-38 13q-8 -2 -15.5 2.5t-9 13t3 16t12.5 8.5q47 10 78 -24.5t17 -79.5
q-3 -8 -10.5 -12t-16 -1.5t-12 10t-1.5 16.5zM822 337q-3 -9 -11.5 -13.5t-18.5 -1.5t-14.5 12t-1.5 18q10 29 3.5 60.5t-28 55.5t-52 33.5t-60.5 3.5q-10 -2 -18.5 3.5t-10.5 15t3.5 18t15.5 10.5q43 9 85.5 -4t73 -47t39.5 -78.5t-5 -85.5zM640.5 233.5
q-5.5 51.5 -64 82.5t-137 23t-130.5 -49.5t-46.5 -93t64 -82.5t137 -23t130.5 49.5t46.5 93zM531 177q-16 -36 -56 -52.5t-79 -4.5q-37 12 -51.5 44.5t2.5 66.5q16 33 53 49t74 6q39 -10 56 -41.5t1 -67.5zM424.5 214q-12.5 5 -26 0.5t-21 -16t-4.5 -24t15 -18t26.5 -1
t22 17t4 24.5t-16 17zM464 231q-11 4 -17.5 -7t4.5 -16q12 -4 19 7q6 11 -6 16z" />
    <glyph glyph-name="uniE62D" unicode="&#xe62d;" 
d="M741 647h-463v55q0 5 3.5 8.5t8.5 3.5h439q5 0 8.5 -3.5t3.5 -8.5v-55zM741 86h-463v528h463v-528zM741 -100q0 -5 -3.5 -8.5t-8.5 -3.5h-439q-5 0 -8.5 3.5t-3.5 8.5v153h463v-153zM729 747h-439q-19 0 -32 -13.5t-13 -31.5v-802q0 -19 13 -32t32 -13h439q19 0 32 13
t13 32v802q0 18 -13 31.5t-32 13.5zM460 -13h99v-33h-99v33z" />
    <glyph glyph-name="uniE62E" unicode="&#xe62e;" 
d="M863 619q-102 47 -207.5 88t-142.5 41t-143 -41t-208 -88q-17 -8 -26.5 -23.5t-9.5 -33.5q4 -192 59 -331q28 -70 67 -132.5t75.5 -104t73.5 -73.5t63.5 -47.5t42.5 -19.5q3 -1 5.5 -1t5.5 1q23 6 61 33.5t84.5 72.5t94.5 117t81 154q55 138 59 331q1 16 -10 33.5
t-25 23.5zM799 247q-30 -76 -74 -143t-86 -108.5t-74.5 -66t-52.5 -32.5q-20 8 -52 31.5t-73.5 64t-85.5 108t-76 146.5q-52 132 -56 316q0 12 11 17q116 54 211.5 90t121.5 36t121 -36t211 -89q3 -2 6.5 -8t3.5 -10q-3 -185 -56 -316zM522 464h-20q-10 0 -10 -11v-223
q0 -11 10 -11h20q11 0 11 11v223q0 11 -11 11zM512.5 179q-8.5 0 -14.5 -6t-6 -14.5t6 -14.5t14.5 -6t14.5 6t6 14.5t-6 14.5t-14.5 6z" />
    <glyph glyph-name="uniE62F" unicode="&#xe62f;" 
d="M810 321h-553v149q0 62 37 116.5t95.5 85.5t122.5 31q63 0 117.5 -36.5t85.5 -95.5t31 -123q0 -9 6 -15t15 -6t15 6t6 15q0 76 -36.5 144.5t-101 111t-138.5 42.5q-75 0 -143.5 -37t-111 -101t-42.5 -138v-149q-36 0 -60.5 -25t-24.5 -60v-298q0 -35 24.5 -60t60.5 -25
h595q35 0 60 25t25 60v298q0 35 -25 60t-60 25v0zM852 -62q0 -17 -12.5 -29.5t-29.5 -12.5h-595q-18 0 -30.5 12.5t-12.5 29.5v298q0 17 12.5 29.5t30.5 12.5h595q17 0 29.5 -12.5t12.5 -29.5v-298v0zM512 193q-18 0 -30 -12.5t-12 -29.5q0 -25 21 -37v-69q0 -13 6.5 -38.5
t14.5 -25.5t14.5 25.5t6.5 38.5v69q22 12 22 37q0 17 -12.5 29.5t-30.5 12.5v0zM512 193z" />
  </font>
</defs>
</svg>
